<?xml version="1.0" encoding="UTF-8"?>
<svg id="b" data-name="Layer 2" xmlns="http://www.w3.org/2000/svg" viewBox="0 0 213.13 68.76">
  <g id="c" data-name="Layer 3">
    <path d="M3.82,64.11c-1.12,0-1.94-.26-2.47-.78-.53-.52-.88-1.22-1.04-2.1-.16-.87-.24-1.85-.24-2.93v-3.5c0-1.46.11-2.63.33-3.51s.61-1.52,1.16-1.92c.55-.39,1.3-.59,2.26-.59,1.03,0,1.8.21,2.33.63s.87.99,1.04,1.72c.17.73.26,1.55.26,2.46v.59h-1.29v-.59c0-1.01-.08-1.79-.24-2.33-.16-.54-.42-.92-.76-1.13-.34-.21-.79-.32-1.34-.32-.67,0-1.17.16-1.52.48-.34.32-.58.83-.69,1.53-.12.7-.18,1.65-.18,2.83v3.86c0,1.61.16,2.78.48,3.5.32.72.96,1.08,1.94,1.08.67,0,1.17-.15,1.5-.44.33-.29.55-.75.66-1.36.1-.62.15-1.41.15-2.39v-.57h1.29v.54c0,.99-.08,1.89-.23,2.67-.15.79-.49,1.41-1,1.88s-1.31.69-2.39.69Z" style="fill: #cf2a31;"/>
    <path d="M9.53,63.87v-14.86h1.36v2.01c.45-.74,1-1.28,1.66-1.63.66-.35,1.28-.53,1.87-.53h.12s.09,0,.14.03v1.41c-.07-.03-.16-.06-.27-.06-.11,0-.21-.01-.3-.01-.69,0-1.3.16-1.84.49-.54.33-1,.8-1.38,1.41v11.75h-1.36Z" style="fill: #cf2a31;"/>
    <path d="M19.38,64.11c-.79,0-1.47-.16-2.03-.48s-1-.89-1.3-1.72c-.3-.83-.45-2.01-.45-3.54v-3.96c0-1.56.15-2.74.46-3.55.31-.81.75-1.35,1.32-1.65s1.25-.44,2.02-.44c.93,0,1.65.2,2.19.59s.91,1.02,1.13,1.89c.22.87.33,2.01.33,3.43v1.41h-6.09v2.37c0,1.18.08,2.11.24,2.78.16.67.42,1.14.78,1.41.36.27.82.41,1.39.41.36,0,.72-.06,1.08-.18.36-.12.66-.4.9-.85.24-.45.36-1.14.36-2.08v-1.11h1.34v.98c0,1.27-.26,2.3-.78,3.09-.52.79-1.49,1.18-2.89,1.18ZM16.96,55.29h4.76v-1.16c0-.89-.05-1.66-.14-2.3-.09-.64-.3-1.14-.63-1.49s-.84-.53-1.54-.53c-.55,0-1.01.12-1.38.35-.37.23-.64.66-.81,1.29-.17.63-.26,1.53-.26,2.71v1.13Z" style="fill: #cf2a31;"/>
    <path d="M27.48,64.11c-.6,0-1.12-.14-1.57-.41s-.79-.66-1.04-1.14-.37-1.05-.37-1.68.08-1.19.24-1.66c.16-.47.46-.91.89-1.32.43-.41,1.04-.84,1.84-1.3.8-.45,1.83-.98,3.1-1.58v-1.05c0-1.08-.06-1.92-.19-2.52-.13-.6-.34-1.02-.64-1.26-.3-.24-.71-.36-1.22-.36-.39,0-.77.07-1.13.21s-.66.41-.89.81c-.23.4-.35,1-.35,1.79v.39h-1.34c0-1.42.29-2.48.86-3.18.57-.69,1.54-1.04,2.89-1.04,1.25,0,2.13.4,2.62,1.18.5.79.75,2.07.75,3.83v7.48c0,.14,0,.4.01.78,0,.39.02.76.03,1.12,0,.36.02.59.04.69h-1.18c-.04-.36-.08-.74-.13-1.13-.05-.39-.09-.68-.1-.85-.22.62-.61,1.14-1.16,1.57-.55.43-1.2.64-1.95.64ZM27.81,62.97c.43,0,.81-.1,1.16-.3.34-.2.65-.45.93-.77.27-.32.5-.66.67-1.02v-4.89c-.91.48-1.67.89-2.28,1.23-.61.34-1.09.67-1.44.98-.35.31-.6.66-.76,1.04-.15.39-.23.85-.23,1.4,0,.89.21,1.5.62,1.83.41.33.86.49,1.34.49Z" style="fill: #cf2a31;"/>
    <path d="M37.3,64.03c-.69,0-1.2-.14-1.54-.41-.34-.27-.57-.64-.67-1.11s-.15-.99-.15-1.57v-11.03h-1.95v-.9h1.95v-4.76h1.36v4.76h2.52v.9h-2.52v10.85c0,.81.08,1.37.23,1.7.15.33.5.49,1.05.49.17,0,.36-.01.55-.04.2-.03.38-.06.55-.09v1.05c-.21.05-.44.09-.69.12-.26.03-.49.04-.69.04Z" style="fill: #cf2a31;"/>
    <path d="M40.36,47.06v-2.37h1.39v2.37h-1.39ZM40.36,63.87v-14.86h1.39v14.86h-1.39Z" style="fill: #cf2a31;"/>
    <path d="M46.82,63.87l-3.42-14.86h1.39l2.78,13.14,2.73-13.14h1.31l-3.27,14.86h-1.52Z" style="fill: #cf2a31;"/>
    <path d="M56.41,64.11c-.79,0-1.47-.16-2.03-.48s-1-.89-1.3-1.72c-.3-.83-.45-2.01-.45-3.54v-3.96c0-1.56.15-2.74.46-3.55.31-.81.75-1.35,1.32-1.65s1.25-.44,2.02-.44c.93,0,1.65.2,2.19.59s.91,1.02,1.13,1.89c.22.87.33,2.01.33,3.43v1.41h-6.09v2.37c0,1.18.08,2.11.24,2.78.16.67.42,1.14.78,1.41.36.27.82.41,1.39.41.36,0,.72-.06,1.08-.18.36-.12.66-.4.9-.85.24-.45.36-1.14.36-2.08v-1.11h1.34v.98c0,1.27-.26,2.3-.78,3.09-.52.79-1.49,1.18-2.89,1.18ZM53.99,55.29h4.76v-1.16c0-.89-.05-1.66-.14-2.3-.09-.64-.3-1.14-.63-1.49s-.84-.53-1.54-.53c-.55,0-1.01.12-1.38.35-.37.23-.64.66-.81,1.29-.17.63-.26,1.53-.26,2.71v1.13Z" style="fill: #cf2a31;"/>
    <path d="M67.14,63.87v-13.91h-2.01v-.95h2.01v-2.01c0-.63.05-1.2.14-1.71.09-.51.31-.91.66-1.21.34-.3.88-.45,1.62-.45.22,0,.45.01.69.04.24.03.46.07.67.14v1.03c-.17-.05-.36-.09-.55-.12-.2-.03-.37-.04-.53-.04-.58,0-.95.18-1.11.54-.15.36-.23.94-.23,1.75v2.03h2.49v.95h-2.49v13.91h-1.36Z"/>
    <path d="M72.29,63.87v-14.86h1.36v2.01c.45-.74,1-1.28,1.66-1.63.66-.35,1.28-.53,1.86-.53h.12s.09,0,.14.03v1.41c-.07-.03-.16-.06-.27-.06-.11,0-.21-.01-.3-.01-.69,0-1.3.16-1.84.49-.54.33-1,.8-1.38,1.41v11.75h-1.36Z"/>
    <path d="M82.09,64.11c-.98,0-1.74-.21-2.28-.64-.54-.43-.92-1.06-1.13-1.9-.21-.84-.32-1.88-.32-3.11v-4.01c0-1.23.11-2.27.32-3.11.21-.84.59-1.47,1.13-1.9.54-.43,1.3-.64,2.28-.64s1.76.22,2.3.64c.54.43.92,1.06,1.13,1.89.21.83.32,1.87.32,3.13v4.01c0,1.23-.11,2.27-.32,3.11-.21.84-.59,1.48-1.13,1.9-.54.43-1.31.64-2.3.64ZM82.09,63.08c.72,0,1.25-.18,1.59-.55.34-.37.56-.9.66-1.58s.14-1.5.14-2.44v-4.12c0-.96-.05-1.78-.14-2.46s-.31-1.2-.66-1.57c-.34-.37-.87-.55-1.59-.55s-1.25.18-1.58.55c-.33.37-.55.89-.64,1.57-.09.68-.14,1.5-.14,2.46v4.12c0,.94.05,1.76.14,2.44.09.69.31,1.21.64,1.58.33.37.86.55,1.58.55Z"/>
    <path d="M87.85,63.87v-14.86h1.36v1.59c.46-.55.99-.99,1.59-1.32.6-.33,1.24-.5,1.93-.5.45,0,.84.11,1.2.32.35.22.63.56.84,1.03.21.47.31,1.1.31,1.89v11.86h-1.36v-11.7c0-.91-.14-1.53-.42-1.85-.28-.33-.66-.49-1.14-.49s-1,.15-1.51.45c-.51.3-.98.7-1.43,1.2v12.4h-1.36Z"/>
    <path d="M100.52,64.03c-.69,0-1.2-.14-1.54-.41-.34-.27-.57-.64-.67-1.11s-.15-.99-.15-1.57v-11.03h-1.95v-.9h1.95v-4.76h1.36v4.76h2.52v.9h-2.52v10.85c0,.81.08,1.37.23,1.7.15.33.5.49,1.05.49.17,0,.36-.01.55-.04.2-.03.38-.06.55-.09v1.05c-.21.05-.44.09-.69.12-.26.03-.49.04-.69.04Z"/>
    <path d="M106.88,64.11c-.79,0-1.47-.16-2.03-.48s-1-.89-1.3-1.72c-.3-.83-.45-2.01-.45-3.54v-3.96c0-1.56.15-2.74.46-3.55.31-.81.75-1.35,1.32-1.65s1.25-.44,2.02-.44c.93,0,1.65.2,2.19.59s.91,1.02,1.13,1.89c.22.87.33,2.01.33,3.43v1.41h-6.09v2.37c0,1.18.08,2.11.24,2.78.16.67.42,1.14.78,1.41.36.27.82.41,1.39.41.36,0,.72-.06,1.08-.18.36-.12.66-.4.9-.85.24-.45.36-1.14.36-2.08v-1.11h1.34v.98c0,1.27-.26,2.3-.78,3.09-.52.79-1.49,1.18-2.89,1.18ZM104.46,55.29h4.76v-1.16c0-.89-.05-1.66-.14-2.3-.09-.64-.3-1.14-.63-1.49s-.84-.53-1.54-.53c-.55,0-1.01.12-1.38.35-.37.23-.64.66-.81,1.29-.17.63-.26,1.53-.26,2.71v1.13Z"/>
    <path d="M112.48,63.87v-14.86h1.36v1.59c.46-.55.99-.99,1.59-1.32.6-.33,1.24-.5,1.93-.5.45,0,.84.11,1.2.32.35.22.63.56.84,1.03.21.47.31,1.1.31,1.89v11.86h-1.36v-11.7c0-.91-.14-1.53-.42-1.85-.28-.33-.66-.49-1.14-.49s-1,.15-1.51.45c-.51.3-.98.7-1.43,1.2v12.4h-1.36Z"/>
    <path d="M125.11,64.11c-1.29,0-2.19-.49-2.71-1.48-.52-.99-.78-2.6-.78-4.85v-2.65c0-1.41.09-2.58.28-3.51.19-.93.53-1.64,1.03-2.12.5-.48,1.2-.72,2.11-.72.63,0,1.17.14,1.62.42.45.28.81.6,1.08.94v-7.1h1.36v20.83h-1.36v-1.13c-.27.33-.63.63-1.07.93-.44.29-.96.44-1.56.44ZM125.29,63.05c.5,0,.96-.13,1.38-.39s.78-.55,1.07-.87v-10.67c-.27-.27-.62-.56-1.04-.85-.42-.29-.9-.44-1.43-.44-.94,0-1.56.39-1.85,1.18s-.44,2.05-.44,3.78v3.09c0,1.2.06,2.18.19,2.95.13.76.36,1.32.69,1.68s.81.54,1.43.54Z"/>
    <path d="M137.6,64.11c-1.29,0-2.19-.49-2.71-1.48-.52-.99-.78-2.6-.78-4.85v-2.65c0-1.41.09-2.58.28-3.51s.53-1.64,1.03-2.12c.5-.48,1.2-.72,2.11-.72.63,0,1.17.14,1.62.42.45.28.81.6,1.08.94v-7.1h1.36v20.83h-1.36v-1.13c-.27.33-.63.63-1.07.93s-.96.44-1.56.44ZM137.78,63.05c.5,0,.96-.13,1.38-.39.42-.26.78-.55,1.07-.87v-10.67c-.27-.27-.62-.56-1.04-.85-.42-.29-.9-.44-1.43-.44-.94,0-1.56.39-1.85,1.18-.29.79-.44,2.05-.44,3.78v3.09c0,1.2.06,2.18.19,2.95s.36,1.32.69,1.68c.33.36.81.54,1.43.54Z"/>
    <path d="M147.39,64.11c-.79,0-1.47-.16-2.03-.48s-1-.89-1.3-1.72c-.3-.83-.45-2.01-.45-3.54v-3.96c0-1.56.15-2.74.46-3.55.31-.81.75-1.35,1.32-1.65s1.25-.44,2.02-.44c.93,0,1.65.2,2.19.59s.91,1.02,1.13,1.89c.22.87.33,2.01.33,3.43v1.41h-6.09v2.37c0,1.18.08,2.11.24,2.78.16.67.42,1.14.78,1.41.36.27.82.41,1.39.41.36,0,.72-.06,1.08-.18.36-.12.66-.4.9-.85.24-.45.36-1.14.36-2.08v-1.11h1.34v.98c0,1.27-.26,2.3-.78,3.09-.52.79-1.49,1.18-2.89,1.18ZM144.98,55.29h4.76v-1.16c0-.89-.05-1.66-.14-2.3-.09-.64-.3-1.14-.63-1.49s-.84-.53-1.54-.53c-.55,0-1.01.12-1.38.35-.37.23-.64.66-.81,1.29-.17.63-.26,1.53-.26,2.71v1.13Z"/>
    <path d="M155.44,63.87l-3.42-14.86h1.39l2.78,13.14,2.73-13.14h1.31l-3.27,14.86h-1.52Z"/>
    <path d="M165.03,64.11c-.79,0-1.47-.16-2.03-.48s-1-.89-1.3-1.72c-.3-.83-.45-2.01-.45-3.54v-3.96c0-1.56.15-2.74.46-3.55.31-.81.75-1.35,1.32-1.65s1.25-.44,2.02-.44c.93,0,1.65.2,2.19.59s.91,1.02,1.13,1.89c.22.87.33,2.01.33,3.43v1.41h-6.09v2.37c0,1.18.08,2.11.24,2.78.16.67.42,1.14.78,1.41.36.27.82.41,1.39.41.36,0,.72-.06,1.08-.18.36-.12.66-.4.9-.85.24-.45.36-1.14.36-2.08v-1.11h1.34v.98c0,1.27-.26,2.3-.78,3.09-.52.79-1.49,1.18-2.89,1.18ZM162.62,55.29h4.76v-1.16c0-.89-.05-1.66-.14-2.3-.09-.64-.3-1.14-.63-1.49s-.84-.53-1.54-.53c-.55,0-1.01.12-1.38.35-.37.23-.64.66-.81,1.29-.17.63-.26,1.53-.26,2.71v1.13Z"/>
    <path d="M170.9,63.87v-20.83h1.36v20.83h-1.36Z"/>
    <path d="M178.23,64.11c-.98,0-1.74-.21-2.28-.64-.54-.43-.92-1.06-1.13-1.9-.21-.84-.32-1.88-.32-3.11v-4.01c0-1.23.11-2.27.32-3.11.21-.84.59-1.47,1.13-1.9.54-.43,1.3-.64,2.28-.64s1.76.22,2.3.64c.54.43.92,1.06,1.13,1.89.21.83.32,1.87.32,3.13v4.01c0,1.23-.11,2.27-.32,3.11-.21.84-.59,1.48-1.13,1.9-.54.43-1.31.64-2.3.64ZM178.23,63.08c.72,0,1.25-.18,1.59-.55.34-.37.56-.9.66-1.58s.14-1.5.14-2.44v-4.12c0-.96-.05-1.78-.14-2.46s-.31-1.2-.66-1.57c-.34-.37-.87-.55-1.59-.55s-1.25.18-1.58.55c-.33.37-.55.89-.64,1.57-.09.68-.14,1.5-.14,2.46v4.12c0,.94.05,1.76.14,2.44.09.69.31,1.21.64,1.58.33.37.86.55,1.58.55Z"/>
    <path d="M183.99,68.76v-19.75h1.36v1.26c.29-.36.67-.7,1.13-1.02s1.04-.48,1.72-.48,1.25.14,1.69.42c.44.28.78.69,1.03,1.23s.42,1.19.51,1.94c.09.76.14,1.59.14,2.52v2.85c0,1.39-.11,2.55-.32,3.5-.22.94-.58,1.65-1.08,2.13-.51.48-1.2.72-2.1.72-.63,0-1.18-.16-1.63-.49-.45-.33-.82-.65-1.09-.98v6.12h-1.36ZM187.92,63.05c.62,0,1.09-.18,1.43-.55.33-.37.56-.94.68-1.72.12-.78.18-1.77.18-2.97v-2.91c0-1.18-.06-2.15-.17-2.89-.11-.75-.33-1.29-.66-1.65s-.81-.53-1.47-.53c-.55,0-1.05.16-1.49.48-.45.32-.81.62-1.08.91v10.49c.29.34.66.65,1.11.93.45.27.93.41,1.47.41Z"/>
    <path d="M197.13,64.11c-.79,0-1.47-.16-2.03-.48s-1-.89-1.3-1.72c-.3-.83-.45-2.01-.45-3.54v-3.96c0-1.56.15-2.74.46-3.55.31-.81.75-1.35,1.32-1.65s1.25-.44,2.02-.44c.93,0,1.66.2,2.19.59.53.39.91,1.02,1.13,1.89s.33,2.01.33,3.43v1.41h-6.1v2.37c0,1.18.08,2.11.24,2.78.16.67.42,1.14.78,1.41.36.27.82.41,1.39.41.36,0,.72-.06,1.08-.18s.66-.4.9-.85c.24-.45.36-1.14.36-2.08v-1.11h1.34v.98c0,1.27-.26,2.3-.78,3.09-.52.79-1.49,1.18-2.89,1.18ZM194.71,55.29h4.76v-1.16c0-.89-.05-1.66-.14-2.3s-.3-1.14-.63-1.49c-.33-.35-.84-.53-1.54-.53-.55,0-1.01.12-1.38.35-.37.23-.64.66-.81,1.29-.17.63-.26,1.53-.26,2.71v1.13Z"/>
    <path d="M202.92,63.87v-14.86h1.36v2.01c.45-.74,1-1.28,1.66-1.63.66-.35,1.28-.53,1.86-.53h.12s.09,0,.14.03v1.41c-.07-.03-.16-.06-.27-.06-.11,0-.21-.01-.3-.01-.69,0-1.3.16-1.84.49-.54.33-1,.8-1.38,1.41v11.75h-1.36Z"/>
    <path d="M141.47,42.79c-.36-.46-.74-.93-1.19-1.29-.5-.4-1.27-2.24-1.55-2.58-.23-.29-.44-.59-.61-.92-.25-.49-1.86-2.54-2.06-2.9-.51-.88-1.05-1.75-1.53-2.65-.19-.34-.26-.75-.44-1.09-.19-.35-.16-.67-.07-1.03.41-1.46.39-2.97.34-4.48-.01-.49.18-.85.53-1.15.15-.13.3-.28.41-.44.49-.77.98-1.56,1.36-2.4.44-1.16-.92-1.39-1.77-1.43-.54-.03-1.09.15-1.64.14.06-.23-.1-.36-.17-.56-.04-.11-.03-.27-.11-.33-.29-.22-.58-.47-.91-.58-.49-.17-1.28.34-1.33.78-.11.78.03,1.65-.38,2.35-.03,0-.07,0-.1,0-.18-.71-.18-1.47-.13-2.2.05-.37.06-.72-.05-1.09-.1-.32-.21-.7-.11-.99.11-.31.1-.59.11-.88.01-.29.03-.6-.25-.8-.04-.03-.03-.13-.02-.2.07-.46.14-.92.22-1.37.03-.17.11-.34.17-.51.02-.04.08-.06.11-.1.03-.03.04-.07.06-.11-.05-.02-.11-.06-.14-.05-.09.06-.19.13-.24.22-.17.32-.37.59-.65.83-.27.23-.39.21-.51-.13.73-.32.69-.3.33-.99,0,0,.05-.02.1-.05-.05-.24-.1-.48-.15-.71l-.07.02c.03.18.06.35.1.59-.37-.29-.2.25-.43.16.08.17.15.32.22.48-.11.03-.17.05-.24.08-.06-.11-.12-.21-.19-.33-.02.06-.04.08-.03.09.13.35.29.69.2,1.08,0,.04.02.1.05.12.32.19.28.5.3.8,0,.05,0,.12-.03.16-.13.16-.32.62-.3.78.11,1.13-.21,2.24-.16,3.38-.01.34-.08.68.22.95.05.04.04.17.04.26-.05.89.25,1.76.32,2.64-.16.98-.22,1.97-.28,2.96-.02.25.01.5-.19.72-.09.1-.12.27-.13.41-.05.42-.07.84-.14,1.25-.15.74.91.57.44,1.33-.75,2.14-1.1,4.42-1.59,6.63-.05.22-.08.46-.04.68.19.9.51,1.75.96,2.55.36.64.3,1.1-.19,1.66-.11.13-.19.3-.22.46-.11.46.45.2.69.3.26.07.85-.12.96-.36.08-.17.07-.39.16-.56.25-.47.21-.97.12-1.46-.13-.64-.33-1.26-.51-1.89-.14-.48-.14-.94.05-1.4.07-.16.08-.34.13-.51.18-.79.53-1.52,1.17-2.03.55-.47,1-.62,1.63-.3.87.44,1.53,1.14,2.23,1.79,1.15,1.11,2.23,2.3,3.2,3.56.66,1.05,1.38,2.04,2.23,2.95.01-.03.93.48,1.22.48.18,0,.48-.04.51-.13.06-.19.05-.49-.07-.64ZM133.5,22.96c-.26-.06-.9.13-.65-.35.16-.33.31-.67.76-.68.14,0,.65.13.89.09-.25.44-.37,1.09-.99.94Z"/>
    <path d="M.43,39.36c0-1.23.05-2.93.05-5.76V1.82c0-.31.21-.51.46-.51h12.55c9.46,0,16.61,6.33,16.61,15.43s-7.46,16.25-17.13,16.25h-7.15v1.08c0,2.62.05,4.11.05,5.3,0,.31-.26.51-.57.51H.94c-.26,0-.51-.21-.51-.51ZM12.88,28c6.79,0,11.93-4.53,11.93-11.26s-5.09-10.44-11.42-10.44h-7.25c-.21,0-.31.1-.31.31v21.4h7.05Z"/>
    <path d="M46.69,1.97l15.84,32.56c1.13,2.42,1.8,3.65,2.26,4.63.15.31.05.72-.46.72h-4.89c-.41,0-.67-.31-.82-.57-.51-1.13-1.18-2.52-2.37-5.04l-.67-1.39h-20.83l-.62,1.34c-1.03,2.26-1.8,3.96-2.37,5.09-.1.26-.41.57-.82.57h-4.42c-.46,0-.62-.41-.46-.72.57-1.03,1.34-2.57,2.37-4.73L44.17,1.97c.36-.77.77-.98,1.23-.98s.87.26,1.29.98ZM53.33,28.1l-8.13-17.18-8.13,17.18h16.25Z"/>
    <path d="M69.51,39.36c0-1.08.05-2.88.05-6.69V6.45c0-.15-.41-.15-.77-.15h-5.97c-3.75,0-5.66.05-6.69.05-.36,0-.57-.26-.57-.51V1.77c0-.26.21-.51.57-.51,1.03,0,2.93.05,6.63.05h18.98c3.75,0,5.61-.05,6.69-.05.31,0,.51.26.51.51v4.06c0,.26-.21.51-.51.51-1.08,0-2.93-.05-6.74-.05h-6.02c-.31,0-.77,0-.77.15v26.28c0,3.75.05,5.61.05,6.63,0,.26-.21.51-.51.51h-4.42c-.26,0-.51-.21-.51-.51Z"/>
    <path d="M92.55,39.36c0-1.18.05-2.88.05-5.76V1.82c0-.31.21-.51.51-.51h12.5c9.46,0,16.61,6.33,16.61,15.43,0,7.46-4.27,12.81-10.8,14.76,2.06,1.85,3.34,4.06,6.89,4.06.77,0,1.49-.1,2.47-.51.36-.1.62,0,.72.36l.87,3.5c.1.41-.05.67-.36.77-1.59.67-2.78.82-3.96.82-8.23,0-9.1-7.51-15.84-7.51h-4.27v1.08c0,2.67.05,4.11.05,5.3,0,.26-.26.51-.51.51h-4.42c-.31,0-.51-.21-.51-.51ZM104.99,28c6.79,0,11.93-4.53,11.93-11.26s-5.09-10.44-11.42-10.44h-7.3c-.21,0-.26.15-.26.31v21.4h7.05Z"/>
    <path d="M140.59,20.54c0-11.06,9.05-20.11,20.26-20.11,8.59,0,15.69,5.4,18.51,12.04.15.36,0,.62-.26.72l-3.65,1.75c-.26.1-.67.05-.82-.31-2.01-5.25-7.25-9.31-13.78-9.31-8.23,0-14.92,6.89-14.92,15.22v.05c0,8.38,6.69,15.22,14.92,15.22,6.84,0,12.03-4.32,14.2-9.77.15-.36.51-.41.77-.31l3.7,1.7c.31.15.41.41.31.77-3.14,7.15-10.03,12.5-18.98,12.5-11.21,0-20.26-9.05-20.26-20.16Z"/>
    <path d="M183.99,39.36c0-1.9.05-3.81.05-6.94V8.71c0-3.03-.05-5.04-.05-6.89,0-.31.26-.51.51-.51h4.37c.31,0,.57.21.57.51,0,1.85-.05,3.81-.05,6.84v6.94l14.09-9.98c2.83-2.01,4.47-3.24,6.02-4.27.31-.26.62-.15.77.05l2.31,3.29c.15.26.21.57-.1.77-1.7,1.18-3.75,2.57-6.69,4.63l-6.89,4.89,8.02,16.51c1.7,3.5,2.83,5.71,3.75,7.61.21.36-.1.77-.46.77h-4.73c-.36,0-.62-.21-.82-.57-.82-1.75-1.75-3.75-3.34-7.05l-6.89-14.14-5.04,3.6v10.7c0,3.19.05,5.04.05,6.94,0,.31-.26.51-.57.51h-4.37c-.26,0-.51-.21-.51-.51Z"/>
  </g>
</svg>